<?xml version="1.0" encoding="UTF-8"?>
<svg xmlns="http://www.w3.org/2000/svg" xmlns:xlink="http://www.w3.org/1999/xlink" width="10px" height="12px" viewBox="0 0 10 11" version="1.1">
<g id="surface1">
<path style=" stroke:none;fill-rule:nonzero;fill:#fff;fill-opacity:1;" d="M 6.785156 2.75 C 6.785156 1.800781 5.984375 1.03125 5 1.03125 C 4.015625 1.03125 3.214844 1.800781 3.214844 2.75 C 3.214844 3.699219 4.015625 4.46875 5 4.46875 C 5.984375 4.46875 6.785156 3.699219 6.785156 2.75 Z M 2.144531 2.75 C 2.144531 1.230469 3.421875 0 5 0 C 6.578125 0 7.855469 1.230469 7.855469 2.75 C 7.855469 4.269531 6.578125 5.5 5 5.5 C 3.421875 5.5 2.144531 4.269531 2.144531 2.75 Z M 1.101562 9.96875 L 8.898438 9.96875 C 8.699219 8.609375 7.488281 7.5625 6.019531 7.5625 L 3.980469 7.5625 C 2.511719 7.5625 1.300781 8.609375 1.101562 9.96875 Z M 0 10.363281 C 0 8.246094 1.78125 6.53125 3.980469 6.53125 L 6.019531 6.53125 C 8.21875 6.53125 10 8.246094 10 10.363281 C 10 10.714844 9.703125 11 9.335938 11 L 0.664062 11 C 0.296875 11 0 10.714844 0 10.363281 Z M 0 10.363281 "/>
</g>
</svg>
