<svg id="Группа_2" data-name="Группа 2" xmlns="http://www.w3.org/2000/svg" xmlns:xlink="http://www.w3.org/1999/xlink" width="153" height="153" viewBox="0 0 153 153">
  <defs>
    <style>
      .cls-1 {
        fill: #fff;
        filter: url(#filter);
      }

      .cls-2 {
        fill: #a3bbc8;
        fill-rule: evenodd;
      }
    </style>
    <filter id="filter" x="0" y="0" width="153" height="153" filterUnits="userSpaceOnUse">
      <feOffset result="offset" dy="6" in="SourceAlpha"/>
      <feGaussianBlur result="blur" stdDeviation="7.071"/>
      <feFlood result="flood" flood-color="#252525" flood-opacity="0.05"/>
      <feComposite result="composite" operator="in" in2="blur"/>
      <feBlend result="blend" in="SourceGraphic"/>
    </filter>
  </defs>
  <rect id="BG" class="cls-1" x="51" y="45" width="50" height="50"/>
  <path id="Forma_1" data-name="Forma 1" class="cls-2" d="M1201.99,1330.82a6.19,6.19,0,0,0-1.85-4.1A5.853,5.853,0,0,0,1196,1325c-2.31,0-3.95,1.78-4.82,2.74-0.06.06-.11,0.12-0.16,0.17a0.647,0.647,0,0,1-.08-0.09c-0.81-.92-2.48-2.82-4.94-2.82a5.853,5.853,0,0,0-4.14,1.72,6.19,6.19,0,0,0-1.85,4.1,6.862,6.862,0,0,0,1.27,4.34,29.2,29.2,0,0,0,4.76,4.75c1.71,1.41,3.95,3.09,4.97,3.09s3.27-1.68,4.96-3.09a29.112,29.112,0,0,0,4.75-4.75A6.88,6.88,0,0,0,1201.99,1330.82Zm-2.38,3.61a26.861,26.861,0,0,1-4.43,4.42c-2.4,2-3.83,2.79-4.17,2.82-0.34-.03-1.77-0.83-4.19-2.84a26.509,26.509,0,0,1-4.43-4.4,5.614,5.614,0,0,1-1.06-3.54,4.812,4.812,0,0,1,4.67-4.57c1.86,0,3.21,1.54,3.94,2.37a1.518,1.518,0,0,0,1.06.76,1.729,1.729,0,0,0,1.15-.81c0.79-.87,2.12-2.32,3.85-2.32a4.812,4.812,0,0,1,4.67,4.57A5.553,5.553,0,0,1,1199.61,1334.43Z" transform="translate(-1115 -1264)"/>
</svg>
